<svg width="160" height="56" viewBox="0 0 160 56" fill="none" xmlns="http://www.w3.org/2000/svg">
<g clip-path="url(#clip0_44_2)">
<path d="M82.8942 14.1506H83.4936C83.7419 14.1506 83.9431 14.3506 83.9431 14.5974V16.2359C83.9431 16.4827 83.7419 16.6828 83.4936 16.6828H82.8942V14.1506Z" fill="#030303"/>
<path d="M82.8942 9.83093H83.4936C83.7419 9.83093 83.9431 10.031 83.9431 10.2778V11.9163C83.9431 12.1631 83.7419 12.3631 83.4936 12.3631H82.8942V9.83093Z" fill="#030303"/>
<path d="M82.8942 5.51129H83.4936C83.7419 5.51129 83.9431 5.71135 83.9431 5.95815V7.59664C83.9431 7.84344 83.7419 8.04349 83.4936 8.04349H82.8942V5.51129Z" fill="#030303"/>
<path d="M79.5978 0H47.8324C45.929 0 44.3861 1.53384 44.3861 3.42592V52.2826C44.3861 54.1746 45.929 55.7085 47.8324 55.7085H79.5978C81.5011 55.7085 83.0441 54.1746 83.0441 52.2826V3.42592C83.0441 1.53384 81.5011 0 79.5978 0Z" fill="white"/>
<path d="M63.715 19.6618C67.1079 19.6618 69.8584 16.9276 69.8584 13.5547C69.8584 10.1819 67.1079 7.44763 63.715 7.44763C60.3222 7.44763 57.5717 10.1819 57.5717 13.5547C57.5717 16.9276 60.3222 19.6618 63.715 19.6618Z" fill="#292929"/>
<path d="M63.715 18.7681C66.6113 18.7681 68.9593 16.434 68.9593 13.5547C68.9593 10.6755 66.6113 8.34137 63.715 8.34137C60.8187 8.34137 58.4707 10.6755 58.4707 13.5547C58.4707 16.434 60.8187 18.7681 63.715 18.7681Z" fill="#333333"/>
<path d="M63.715 17.4275C65.8666 17.4275 67.6108 15.6936 67.6108 13.5547C67.6108 11.4158 65.8666 9.68195 63.715 9.68195C61.5635 9.68195 59.8193 11.4158 59.8193 13.5547C59.8193 15.6936 61.5635 17.4275 63.715 17.4275Z" fill="#292929"/>
<path d="M63.715 50.6441C71.4938 50.6441 77.7997 44.3753 77.7997 36.6425C77.7997 28.9096 71.4938 22.6409 63.715 22.6409C55.9362 22.6409 49.6303 28.9096 49.6303 36.6425C49.6303 44.3753 55.9362 50.6441 63.715 50.6441Z" fill="#292929"/>
<path d="M63.7151 48.2608C70.1698 48.2608 75.4024 43.0591 75.4024 36.6425C75.4024 30.2258 70.1698 25.0241 63.7151 25.0241C57.2604 25.0241 52.0278 30.2258 52.0278 36.6425C52.0278 43.0591 57.2604 48.2608 63.7151 48.2608Z" fill="#333333"/>
<path d="M63.715 45.7286C68.7629 45.7286 72.8551 41.6606 72.8551 36.6425C72.8551 31.6243 68.7629 27.5563 63.715 27.5563C58.6671 27.5563 54.575 31.6243 54.575 36.6425C54.575 41.6606 58.6671 45.7286 63.715 45.7286Z" fill="#E3CC4C"/>
<path d="M63.715 42.7496C67.1079 42.7496 69.8584 40.0153 69.8584 36.6425C69.8584 33.2696 67.1079 30.5354 63.715 30.5354C60.3222 30.5354 57.5717 33.2696 57.5717 36.6425C57.5717 40.0153 60.3222 42.7496 63.715 42.7496Z" fill="#292929"/>
<path d="M35.2117 0H3.44625C1.54294 0 0 1.53384 0 3.42592V52.2826C0 54.1746 1.54294 55.7085 3.44625 55.7085H35.2117C37.115 55.7085 38.658 54.1746 38.658 52.2826V3.42592C38.658 1.53384 37.115 0 35.2117 0Z" fill="white"/>
<path d="M19.3291 19.6618C22.7219 19.6618 25.4724 16.9276 25.4724 13.5547C25.4724 10.1819 22.7219 7.44763 19.3291 7.44763C15.9362 7.44763 13.1857 10.1819 13.1857 13.5547C13.1857 16.9276 15.9362 19.6618 19.3291 19.6618Z" fill="#292929"/>
<path d="M19.329 18.7681C22.2254 18.7681 24.5733 16.434 24.5733 13.5547C24.5733 10.6755 22.2254 8.34137 19.329 8.34137C16.4327 8.34137 14.0847 10.6755 14.0847 13.5547C14.0847 16.434 16.4327 18.7681 19.329 18.7681Z" fill="#333333"/>
<path d="M19.3289 17.4275C21.4805 17.4275 23.2247 15.6936 23.2247 13.5547C23.2247 11.4158 21.4805 9.68195 19.3289 9.68195C17.1774 9.68195 15.4332 11.4158 15.4332 13.5547C15.4332 15.6936 17.1774 17.4275 19.3289 17.4275Z" fill="#292929"/>
<path d="M19.329 50.6441C27.1078 50.6441 33.4137 44.3753 33.4137 36.6425C33.4137 28.9096 27.1078 22.6409 19.329 22.6409C11.5503 22.6409 5.24432 28.9096 5.24432 36.6425C5.24432 44.3753 11.5503 50.6441 19.329 50.6441Z" fill="#292929"/>
<path d="M19.329 48.2608C25.7837 48.2608 31.0163 43.0591 31.0163 36.6425C31.0163 30.2258 25.7837 25.0241 19.329 25.0241C12.8743 25.0241 7.64172 30.2258 7.64172 36.6425C7.64172 43.0591 12.8743 48.2608 19.329 48.2608Z" fill="#333333"/>
<path d="M19.3289 45.7286C24.3768 45.7286 28.469 41.6606 28.469 36.6425C28.469 31.6243 24.3768 27.5563 19.3289 27.5563C14.281 27.5563 10.1888 31.6243 10.1888 36.6425C10.1888 41.6606 14.281 45.7286 19.3289 45.7286Z" fill="#E3CC4C"/>
<path d="M19.3291 42.7496C22.7219 42.7496 25.4724 40.0153 25.4724 36.6425C25.4724 33.2696 22.7219 30.5354 19.3291 30.5354C15.9362 30.5354 13.1857 33.2696 13.1857 36.6425C13.1857 40.0153 15.9362 42.7496 19.3291 42.7496Z" fill="#292929"/>
</g>
<path d="M100.109 34.16C99.2448 34.16 98.4075 34.0373 97.5968 33.792C96.7968 33.5467 96.1621 33.2213 95.6928 32.816L96.4128 31.2C96.8715 31.5627 97.4315 31.8613 98.0928 32.096C98.7648 32.32 99.4368 32.432 100.109 32.432C100.941 32.432 101.559 32.2987 101.965 32.032C102.381 31.7653 102.589 31.4133 102.589 30.976C102.589 30.656 102.471 30.3947 102.237 30.192C102.013 29.9787 101.725 29.8133 101.373 29.696C101.021 29.5787 100.541 29.4453 99.9328 29.296C99.0795 29.0933 98.3861 28.8907 97.8528 28.688C97.3301 28.4853 96.8768 28.1707 96.4928 27.744C96.1195 27.3067 95.9328 26.72 95.9328 25.984C95.9328 25.3653 96.0981 24.8053 96.4288 24.304C96.7701 23.792 97.2768 23.3867 97.9488 23.088C98.6315 22.7893 99.4635 22.64 100.445 22.64C101.127 22.64 101.799 22.7253 102.461 22.896C103.122 23.0667 103.693 23.312 104.173 23.632L103.517 25.248C103.026 24.96 102.514 24.7413 101.981 24.592C101.447 24.4427 100.93 24.368 100.429 24.368C99.6075 24.368 98.9941 24.5067 98.5888 24.784C98.1941 25.0613 97.9968 25.4293 97.9968 25.888C97.9968 26.208 98.1088 26.4693 98.3328 26.672C98.5675 26.8747 98.8608 27.0347 99.2128 27.152C99.5648 27.2693 100.045 27.4027 100.653 27.552C101.485 27.744 102.167 27.9467 102.701 28.16C103.234 28.3627 103.687 28.6773 104.061 29.104C104.445 29.5307 104.637 30.1067 104.637 30.832C104.637 31.4507 104.466 32.0107 104.125 32.512C103.794 33.0133 103.287 33.4133 102.605 33.712C101.922 34.0107 101.09 34.16 100.109 34.16ZM114.859 25.456V34H112.955V32.896C112.625 33.3013 112.214 33.6053 111.723 33.808C111.243 34.0107 110.71 34.112 110.123 34.112C109.291 34.112 108.545 33.9307 107.883 33.568C107.233 33.2053 106.721 32.6933 106.347 32.032C105.985 31.3707 105.803 30.6027 105.803 29.728C105.803 28.8533 105.985 28.0907 106.347 27.44C106.721 26.7787 107.233 26.2667 107.883 25.904C108.545 25.5413 109.291 25.36 110.123 25.36C110.678 25.36 111.185 25.456 111.643 25.648C112.113 25.84 112.518 26.1227 112.859 26.496V25.456H114.859ZM110.347 32.4C111.083 32.4 111.691 32.1547 112.171 31.664C112.651 31.1733 112.891 30.528 112.891 29.728C112.891 28.928 112.651 28.2827 112.171 27.792C111.691 27.3013 111.083 27.056 110.347 27.056C109.611 27.056 109.003 27.3013 108.523 27.792C108.054 28.2827 107.819 28.928 107.819 29.728C107.819 30.528 108.054 31.1733 108.523 31.664C109.003 32.1547 109.611 32.4 110.347 32.4ZM120.964 30.336L119.476 31.744V34H117.476V22.128H119.476V29.296L123.62 25.456H126.02L122.452 29.04L126.356 34H123.924L120.964 30.336ZM135.764 25.456V34H133.86V32.912C133.54 33.296 133.14 33.5947 132.66 33.808C132.18 34.0107 131.662 34.112 131.108 34.112C129.966 34.112 129.065 33.7973 128.404 33.168C127.753 32.528 127.428 31.584 127.428 30.336V25.456H129.428V30.064C129.428 30.832 129.598 31.408 129.94 31.792C130.292 32.1653 130.788 32.352 131.428 32.352C132.142 32.352 132.708 32.1333 133.124 31.696C133.55 31.248 133.764 30.608 133.764 29.776V25.456H135.764ZM141.022 34.112C140.329 34.112 139.652 34.0213 138.99 33.84C138.329 33.6587 137.801 33.4293 137.406 33.152L138.174 31.632C138.558 31.888 139.017 32.096 139.55 32.256C140.094 32.4053 140.628 32.48 141.15 32.48C142.345 32.48 142.942 32.1653 142.942 31.536C142.942 31.2373 142.788 31.0293 142.478 30.912C142.18 30.7947 141.694 30.6827 141.022 30.576C140.318 30.4693 139.742 30.3467 139.294 30.208C138.857 30.0693 138.473 29.8293 138.142 29.488C137.822 29.136 137.662 28.6507 137.662 28.032C137.662 27.2213 137.998 26.576 138.67 26.096C139.353 25.6053 140.27 25.36 141.422 25.36C142.009 25.36 142.596 25.4293 143.182 25.568C143.769 25.696 144.249 25.872 144.622 26.096L143.854 27.616C143.129 27.1893 142.313 26.976 141.406 26.976C140.82 26.976 140.372 27.0667 140.062 27.248C139.764 27.4187 139.614 27.648 139.614 27.936C139.614 28.256 139.774 28.4853 140.094 28.624C140.425 28.752 140.932 28.8747 141.614 28.992C142.297 29.0987 142.857 29.2213 143.294 29.36C143.732 29.4987 144.105 29.7333 144.414 30.064C144.734 30.3947 144.894 30.864 144.894 31.472C144.894 32.272 144.548 32.912 143.854 33.392C143.161 33.872 142.217 34.112 141.022 34.112ZM150.681 32.416C151.609 32.416 152.382 32.1067 153.001 31.488L154.057 32.72C153.683 33.1787 153.203 33.5253 152.617 33.76C152.03 33.9947 151.369 34.112 150.633 34.112C149.694 34.112 148.867 33.9253 148.153 33.552C147.438 33.1787 146.883 32.6613 146.489 32C146.105 31.328 145.913 30.5707 145.913 29.728C145.913 28.896 146.099 28.1493 146.473 27.488C146.857 26.816 147.379 26.2933 148.041 25.92C148.713 25.5467 149.47 25.36 150.313 25.36C151.113 25.36 151.838 25.536 152.489 25.888C153.15 26.2293 153.673 26.7253 154.057 27.376C154.441 28.016 154.633 28.768 154.633 29.632L148.089 30.912C148.291 31.4027 148.617 31.776 149.065 32.032C149.513 32.288 150.051 32.416 150.681 32.416ZM150.313 26.96C149.577 26.96 148.979 27.2 148.521 27.68C148.073 28.16 147.849 28.8053 147.849 29.616V29.632L152.681 28.704C152.542 28.1813 152.259 27.76 151.833 27.44C151.417 27.12 150.91 26.96 150.313 26.96ZM156.554 25.456H158.554V34H156.554V25.456ZM157.562 24.048C157.2 24.048 156.896 23.936 156.65 23.712C156.405 23.4773 156.282 23.1893 156.282 22.848C156.282 22.5067 156.405 22.224 156.65 22C156.896 21.7653 157.2 21.648 157.562 21.648C157.925 21.648 158.229 21.76 158.474 21.984C158.72 22.1973 158.842 22.4693 158.842 22.8C158.842 23.152 158.72 23.4507 158.474 23.696C158.24 23.9307 157.936 24.048 157.562 24.048Z" fill="white"/>
<defs>
<clipPath id="clip0_44_2">
<rect width="84.4098" height="55.7085" fill="white"/>
</clipPath>
</defs>
</svg>
